<?xml version="1.0" standalone="no"?>
<!DOCTYPE svg PUBLIC "-//W3C//DTD SVG 20010904//EN"
 "http://www.w3.org/TR/2001/REC-SVG-20010904/DTD/svg10.dtd">
<svg version="1.0" xmlns="http://www.w3.org/2000/svg"
 width="41.000000pt" height="49.000000pt" viewBox="0 0 41.000000 49.000000"
 preserveAspectRatio="xMidYMid meet">

<g transform="translate(0.000000,49.000000) scale(0.100000,-0.100000)"
fill="#000000" stroke="none">
<path d="M83 435 c-37 -16 -73 -68 -73 -105 0 -39 37 -90 77 -106 48 -21 95
-11 133 27 53 54 36 150 -34 183 -41 19 -61 20 -103 1z m112 -50 c53 -52 15
-135 -61 -135 -51 0 -84 31 -84 79 0 75 91 111 145 56z"/>
<path d="M100 335 c0 -10 10 -15 30 -15 20 0 30 5 30 15 0 10 -10 15 -30 15
-20 0 -30 -5 -30 -15z"/>
<path d="M320 335 c0 -10 10 -15 30 -15 20 0 30 5 30 15 0 10 -10 15 -30 15
-20 0 -30 -5 -30 -15z"/>
<path d="M85 130 c-10 -16 19 -55 58 -79 76 -47 147 -40 213 21 34 32 42 44
33 54 -9 11 -18 7 -50 -18 -67 -54 -159 -49 -213 11 -21 23 -32 26 -41 11z"/>
</g>
</svg>
